<svg xmlns="http://www.w3.org/2000/svg" width="130" height="68" viewBox="0 0 130 68"><path fill="#320fa8" fill-rule="evenodd" d="M0 0h6.3698v67.76383H0V0zm27.37659 22.15877c3.25266 0 6.03098 1.15199 8.33495 3.45596 2.30397 2.2362 3.45595 5.01452 3.45595 8.26718 0 3.25267-1.15198 6.03098-3.45595 8.33495-2.30397 2.30397-5.08229 3.45596-8.33495 3.45596-3.25267 0-6.03098-1.15199-8.2672-3.45596-2.30396-2.30397-3.45595-5.08228-3.45595-8.33495 0-3.25266 1.15199-6.03098 3.45596-8.26718 2.2362-2.30397 5.01452-3.45596 8.26719-3.45596zm22.69823 10.70669h2.51467c0 3.3088 1.18564 6.1488 3.55694 8.5201 2.3713 2.37131 5.20029 3.55695 8.48703 3.55695 3.3088 0 6.1488-1.18564 8.5201-3.55694 2.37131-2.3713 3.55695-5.21132 3.55695-8.52011h2.51467c0 4.01467-1.42828 7.44474-4.28487 10.2903-2.8566 2.84557-6.29218 4.26833-10.30685 4.26833-4.01468 0-7.44475-1.41725-10.29031-4.25178-2.84557-2.83454-4.26833-6.27012-4.26833-10.30685zm51.8486-10.70669c3.25266 0 6.03097 1.15199 8.33495 3.45596 2.30396 2.2362 3.45595 5.01452 3.45595 8.26718 0 3.25267-1.15199 6.03098-3.45596 8.33495-2.30397 2.30397-5.08228 3.45596-8.33495 3.45596-3.25266 0-6.03098-1.15199-8.26718-3.45596-2.30397-2.30397-3.45596-5.08228-3.45596-8.33495 0-3.25266 1.15199-6.03098 3.45596-8.26718 2.2362-2.30397 5.01452-3.45596 8.26718-3.45596h.00001zM122.9302 0H129.3v67.76383h-6.3698V0z"/></svg>