<svg xmlns="http://www.w3.org/2000/svg" viewBox="0 0 93 23">
  <g fill="none" fill-rule="evenodd">
    <path fill="#FFF" d="M14.22.4L11.6 17H7.96L10.58.4h3.64zm-9 9.34L4.08 17H.44l1.14-7.26H.3l.48-3h1.28l.22-1.3c.13333-.85334.3-1.53666.5-2.05.2-.51334.56666-1.03 1.1-1.55C4.97334.74666 6.25333.2 7.72.2c.57334 0 1.07333.12 1.5.36l-.5 3.14c-.48-.22667-.88666-.34-1.22-.34-.45334 0-.79666.13667-1.03.41-.23333.27333-.40333.71-.51 1.31L5.7 6.74h2.54l-.48 3H5.22zm17.0109.5c-.34666-.45334-.87999-.68-1.6-.68-.72 0-1.32332.22333-1.81.67-.48666.44667-.78332.99666-.89 1.65-.10666.66667.01334 1.21666.36 1.65.34668.43334.88.65 1.6.65.72001 0 1.32667-.21666 1.82-.65.49334-.43334.79334-.98333.9-1.65.10668-.65334-.01999-1.2-.38-1.64zm4.7-3.5L25.3109 17h-3.64l.18-1.14h-.04c-.38666.48-.87999.84667-1.48 1.1-.6.25333-1.21999.38-1.86.38-1.49333 0-2.64332-.53666-3.45-1.61-.80666-1.07334-1.09-2.36333-.85-3.87.24001-1.50667.92667-2.79333 2.06-3.86 1.13335-1.06667 2.44667-1.6 3.94-1.6 1.36002 0 2.34667.44666 2.96 1.34l.16-1h3.64zm13.77092 0l-1.46 9.26c-.34667 2.12001-1.1 3.67-2.26 4.65-1.16.98-2.71332 1.47-4.66 1.47-1.34668 0-2.56333-.34333-3.65-1.03-1.08667-.68667-1.61-1.65-1.57-2.89h4.08c.05333.33334.24.59333.56.78.29333.16.62666.24 1 .24.90667 0 1.56666-.25333 1.98-.76.41333-.50667.69333-1.23333.84-2.18l.08-.48c-1.09334.93334-2.26 1.4-3.5 1.4-1.48 0-2.61333-.5-3.4-1.5s-1.06-2.24666-.82-3.74c.24-1.53334.94-2.84333 2.1-3.93 1.16-1.08667 2.50666-1.63 4.04-1.63 1.34667 0 2.28.47333 2.8 1.42h.04l.16-1.08h3.64zm-4.68 3.42c-.34667-.45334-.88-.68-1.6-.68-.72 0-1.32667.22333-1.82.67-.49334.44667-.79334.99666-.9 1.65-.10667.66667.01666 1.21666.37 1.65.35333.43334.89.65 1.61.65.72 0 1.32333-.21666 1.81-.65.48667-.43334.78333-.98333.89-1.65.10666-.65334-.01333-1.2-.36-1.64zm10.5709-3.42l-.18 1.16h.04c.4-.49334.9-.86667 1.5-1.12.60001-.25333 1.21334-.38 1.84-.38 1.49335 0 2.64334.54 3.45 1.62.80668 1.08 1.09 2.37333.85 3.88-.24 1.50667-.92665 2.79-2.06 3.85-1.13333 1.06-2.44665 1.59-3.94 1.59-1.34667 0-2.33332-.44-2.96-1.32l-.98 6.1h-3.64l2.44-15.38h3.64zm3.38 3.5c-.34666-.45334-.87999-.68-1.6-.68-.72 0-1.32332.22333-1.81.67-.48666.44667-.78333.99666-.89 1.65-.10666.66667.01334 1.21666.36 1.65.34668.43334.88.65 1.6.65.72001 0 1.32667-.21666 1.82-.65.49334-.43334.79334-.98333.9-1.65.10668-.65334-.02-1.2-.38-1.64zm13.35092 0c-.34667-.45334-.88-.68-1.6-.68-.72 0-1.32333.22333-1.81.67-.48667.44667-.78334.99666-.89 1.65-.10667.66667.01333 1.21666.36 1.65.34666.43334.88.65 1.6.65.72 0 1.32666-.21666 1.82-.65.49333-.43334.79333-.98333.9-1.65.10666-.65334-.02-1.2-.38-1.64zm4.7-3.5l-1.62 10.26h-3.64l.18-1.14h-.04c-.38667.48-.88.84667-1.48 1.1-.6.25333-1.22.38-1.86.38-1.49334 0-2.64333-.53666-3.45-1.61s-1.09-2.36333-.85-3.87c.24-1.50667.92666-2.79333 2.06-3.86 1.13334-1.06667 2.44666-1.6 3.94-1.6 1.36 0 2.34666.44666 2.96 1.34l.16-1h3.64zm9.8709.26l-.48 3.08c-.57333-.48-1.16-.72-1.76-.72-.70666 0-1.34.24-1.9.72-.56.48-.89333 1.07333-1 1.78-.12.73334.02334 1.33666.43 1.81.40667.47334.98333.71 1.73.71.70668 0 1.34667-.23333 1.92-.7l-.48 3.08c-.82667.38667-1.71332.58-2.66.58-1.54667 0-2.77999-.51-3.7-1.53-.92-1.02-1.26-2.29666-1.02-3.83.25334-1.62667 1.01333-2.96333 2.28-4.01 1.26668-1.04667 2.71333-1.57 4.34-1.57.88001 0 1.64667.2 2.3.6zM84.92546.4l-1.58 10.04 4.36-3.7h4.98l-5.88 4.74 4.58 5.52h-5.1l-3.32-4.18-.66 4.18h-3.64l2.62-16.6h3.64z"/>
  </g>
</svg>