<svg xmlns="http://www.w3.org/2000/svg" xmlns:xlink="http://www.w3.org/1999/xlink" viewBox="0 0 523 128"><defs><path id="b" d="M116 1l-14.64856 94H81L95.64856 1H116zM65.57848 53.94643L59.18834 95H38.78475l6.39014-41.05357H38l2.69058-16.96429h7.1749l1.23317-7.35119c.7474-4.82542 1.68161-8.68947 2.8027-11.59226 1.12108-2.9028 3.17636-5.82439 6.16591-8.76488C64.19585 3.09124 71.37066 0 79.59193 0 82.8057 0 85.60836.67856 88 2.03571l-2.8027 17.75596c-2.69059-1.28176-4.97009-1.92262-6.83856-1.92262-2.54111 0-4.4656.7728-5.77354 2.31845-1.30793 1.54564-2.26083 4.01486-2.85874 7.40774l-1.4574 9.3869h14.23767l-2.69059 16.96429H65.57848zm96.05574 2.88041C159.66543 54.2756 156.63657 53 152.54755 53s-7.51541 1.25684-10.27929 3.77056c-2.76387 2.51372-4.44867 5.60893-5.05445 9.28572-.60578 3.75182.0757 6.84703 2.0445 9.28571C141.22709 77.78068 144.25595 79 148.34497 79c4.08902 0 7.53435-1.21932 10.33608-3.658 2.80174-2.4387 4.50547-5.5339 5.11125-9.28572.60578-3.67679-.11357-6.75324-2.15808-9.22944zM188 36.92687l-9.0823 58.14626h-20.40717l1.00914-6.4607h-.22425c-2.1678 2.7203-4.93359 4.79829-8.29742 6.234C147.63416 96.28216 144.15825 97 140.57016 97c-8.3722 0-14.81946-3.0414-19.34195-9.12431-4.5225-6.08291-6.11095-13.39362-4.76541-21.93236 1.34553-8.53874 5.1952-15.83056 11.5491-21.87569C134.36583 38.02252 141.72878 35 150.10099 35c7.6247 0 13.15625 2.53136 16.59484 7.59415l.89702-5.66728H188zm77-.00193l-8.15755 52.4262c-1.93696 12.00261-6.14606 20.77797-12.62743 26.32634C237.73365 121.22585 229.0547 124 218.17792 124c-7.52435 0-14.32223-1.94379-20.39386-5.83142-6.07163-3.88764-8.99565-9.34157-8.77216-16.36196h22.79643c.298 1.8872 1.34096 3.3592 3.12892 4.41603 1.63897.90585 3.5014 1.35877 5.58736 1.35877 5.0659 0 8.75352-1.43425 11.06298-4.3028 2.30945-2.86854 3.8739-6.98258 4.69338-12.34223l.44699-2.71756c-6.10888 5.28417-12.6274 7.9262-19.55576 7.9262-8.26934 0-14.60162-2.83075-18.99703-8.49236-4.3954-5.6616-5.9226-12.71963-4.58163-21.1743 1.34097-8.68113 5.25208-16.09772 11.73345-22.25C211.80836 38.0761 219.3326 35 227.89993 35c7.52435 0 12.73916 2.67979 15.6446 8.03944h.2235l.89398-6.1145H265zm-26.25805 19.9019C236.77338 54.2756 233.74485 53 229.65629 53c-4.08856 0-7.5335 1.25684-10.33493 3.77056-2.80142 2.51372-4.50496 5.60893-5.11068 9.28572-.6057 3.75182.09464 6.84703 2.10106 9.28571C218.31817 77.78068 221.36562 79 225.45418 79s7.51458-1.21932 10.27814-3.658c2.76357-2.4387 4.44818-5.5339 5.0539-9.28572.60571-3.67679-.0757-6.75324-2.04427-9.22944zm59.52398-19.9019l-1.01445 6.56743h.22544c2.25435-2.79306 5.07224-4.9067 8.45376-6.34097C309.31221 35.71713 312.76882 35 316.30064 35c8.41623 0 14.89739 3.05722 19.44366 9.17176 4.54627 6.11453 6.14308 13.43676 4.79047 21.96692-1.35261 8.53015-5.22252 15.79577-11.60984 21.79707-6.38732 6.0013-13.789 9.0019-22.20523 9.0019-7.58964 0-13.15028-2.49106-16.6821-7.47327L284.51447 124H264l13.75146-87.07506h20.51447zm19.36829 19.9019C315.66543 54.2756 312.63657 53 308.54755 53s-7.51541 1.25684-10.27929 3.77056c-2.76387 2.51372-4.44867 5.60893-5.05445 9.28572-.60578 3.75182.0757 6.84703 2.0445 9.28571C297.22709 77.78068 300.25595 79 304.34497 79c4.08902 0 7.53435-1.21932 10.33608-3.658 2.80174-2.4387 4.50547-5.5339 5.11125-9.28572.60578-3.67679-.11357-6.75324-2.15808-9.22944zm74 0C389.66543 54.2756 386.63657 53 382.54755 53s-7.51541 1.25684-10.27929 3.77056c-2.76387 2.51372-4.44867 5.60893-5.05445 9.28572-.60578 3.75182.0757 6.84703 2.0445 9.28571C371.22709 77.78068 374.25595 79 378.34497 79c4.08902 0 7.53435-1.21932 10.33608-3.658 2.80174-2.4387 4.50547-5.5339 5.11125-9.28572.60578-3.67679-.11357-6.75324-2.15808-9.22944zM418 36.92687l-9.0823 58.14626h-20.40717l1.00914-6.4607h-.22425c-2.1678 2.7203-4.93359 4.79829-8.29742 6.234C377.63416 96.28216 374.15825 97 370.57016 97c-8.3722 0-14.81946-3.0414-19.34195-9.12431-4.5225-6.08291-6.11095-13.39362-4.76541-21.93236 1.34553-8.53874 5.1952-15.83056 11.5491-21.87569C364.36583 38.02252 371.72878 35 380.10099 35c7.6247 0 13.15625 2.53136 16.59484 7.59415l.89702-5.66728H418zm55 1.4735l-2.6683 17.4552c-3.18716-2.7203-6.44838-4.08043-9.78378-4.08043-3.92835 0-7.449 1.36013-10.56203 4.08044-3.11303 2.7203-4.966 6.08285-5.55896 10.08775-.66708 4.15602.1297 7.57524 2.39035 10.25777 2.26066 2.68252 5.4663 4.02376 9.61701 4.02376 3.92835 0 7.48606-1.32235 10.6732-3.96709l-2.6683 17.45521C459.84378 95.90434 454.91488 97 449.65237 97c-8.5979 0-15.4539-2.89028-20.56817-8.67093-5.11427-5.78065-7.0043-13.0158-5.67014-21.70567 1.40828-9.21881 5.63305-16.794 12.67444-22.72578C443.12988 37.96584 451.17176 35 460.21439 35c4.8919 0 9.15374 1.13344 12.78561 3.40037zM513.2739 1l-8.903 56.85301 24.56776-20.9518H557l-33.13267 26.84096L549.67475 95h-28.73752l-18.70756-23.66988L498.5107 95H478l14.7632-94h20.5107z"/><filter id="a" width="101.5%" height="106.5%" x="-.4%" y="-1.6%" filterUnits="objectBoundingBox"><feOffset dx="4" dy="4" in="SourceAlpha" result="shadowOffsetOuter1"/><feColorMatrix in="shadowOffsetOuter1" values="0 0 0 0 0.196078431 0 0 0 0 0.0588235294 0 0 0 0 0.658823529 0 0 0 1 0"/></filter></defs><g fill="none" fill-rule="evenodd"><g transform="translate(-38)"><use fill="#000" filter="url(#a)" xlink:href="#b"/><use fill="#F51EBF" xlink:href="#b"/></g></g></svg>